<?xml version="1.0" standalone="no"?>
<!DOCTYPE svg PUBLIC "-//W3C//DTD SVG 20010904//EN"
 "http://www.w3.org/TR/2001/REC-SVG-20010904/DTD/svg10.dtd">
<svg version="1.0" xmlns="http://www.w3.org/2000/svg"
 width="489.000000pt" height="489.000000pt" viewBox="0 0 489.000000 489.000000"
 preserveAspectRatio="xMidYMid meet">
<metadata>
Created by potrace 1.14, written by Peter Selinger 2001-2017
</metadata>
<g transform="translate(0.000000,489.000000) scale(0.100000,-0.100000)"
fill="#000000" stroke="none">
<path d="M0 2445 l0 -2445 2445 0 2445 0 0 2445 0 2445 -2445 0 -2445 0 0
-2445z m2244 964 c19 -28 7 -58 -32 -79 -17 -10 -29 -20 -25 -24 3 -3 -5 -27
-19 -53 -24 -44 -32 -76 -29 -111 4 -42 76 62 105 151 8 24 29 10 23 -14 -4
-14 0 -19 14 -19 23 0 23 0 3 -50 -9 -23 -14 -44 -10 -47 9 -9 48 86 42 103
-3 8 -1 14 4 14 5 0 17 15 26 33 18 34 31 47 52 47 14 0 16 -38 2 -60 -6 -9
-5 -17 3 -22 9 -6 8 -8 -3 -8 -18 0 -64 -56 -72 -87 -9 -36 8 -36 36 -1 14 18
26 28 26 22 0 -6 -9 -23 -21 -38 -21 -27 -53 -34 -65 -15 -4 8 -9 8 -17 0 -6
-6 -20 -11 -30 -11 -16 0 -18 5 -14 33 3 17 8 42 12 55 13 41 -10 23 -29 -23
-33 -81 -96 -110 -120 -55 l-12 30 -34 -25 c-58 -43 -121 -26 -120 33 1 35 24
99 44 121 14 15 13 18 -4 29 -20 12 -28 62 -10 62 6 0 10 -9 10 -20 0 -31 28
-36 58 -11 75 61 177 80 206 40z m431 5 c19 -9 40 -31 51 -52 11 -20 20 -39
22 -42 2 -3 10 3 17 14 8 10 18 15 23 12 6 -3 12 1 16 9 5 14 46 22 46 10 0
-3 -11 -22 -24 -43 -50 -79 -77 -142 -68 -158 7 -13 13 -10 31 20 13 20 27 36
32 36 14 0 -17 -56 -39 -72 -11 -8 -21 -31 -25 -56 -6 -48 -30 -82 -59 -82
-29 0 -31 22 -9 85 11 32 18 62 14 68 -3 5 1 15 9 21 8 6 29 42 46 80 27 58
29 67 12 51 -11 -10 -34 -46 -50 -79 -70 -148 -241 -159 -228 -15 3 29 0 53
-9 65 -17 23 -17 48 1 83 29 55 123 78 191 45z m399 -650 c41 -16 -14 -84 -67
-84 -23 0 -70 -99 -126 -270 -23 -69 -70 -181 -103 -250 -79 -162 -157 -244
-291 -310 -82 -41 -96 -44 -181 -48 -145 -7 -241 31 -281 109 -21 39 -19 135
4 185 21 46 85 104 116 104 16 0 12 -6 -18 -31 -51 -42 -79 -100 -79 -161 1
-70 26 -107 97 -143 50 -26 69 -30 134 -30 100 1 165 31 258 119 92 86 147
169 228 341 36 77 92 193 124 258 32 64 57 117 55 117 -27 0 -175 -59 -220
-88 -96 -63 -133 -115 -136 -198 -4 -86 65 -109 128 -43 23 24 29 39 29 75 0
45 18 61 28 24 21 -81 -91 -180 -175 -155 -94 29 -102 153 -16 250 50 57 171
117 295 147 68 17 97 29 126 55 39 34 45 37 71 27z m-1854 -19 c0 -3 -11 -18
-25 -33 -42 -46 -41 -59 9 -108 25 -25 60 -75 78 -112 30 -60 33 -75 33 -152
-1 -94 -14 -130 -69 -188 -59 -63 -98 -77 -216 -76 -78 1 -122 7 -170 22 l-65
21 -45 -22 c-35 -17 -62 -22 -127 -22 -72 0 -84 3 -107 24 -34 32 -34 74 -1
106 38 39 113 35 201 -10 l69 -34 18 22 c36 44 72 104 145 242 40 77 87 157
104 178 16 21 28 40 27 41 -16 14 -74 36 -120 45 -62 13 -149 4 -212 -23 -156
-65 -213 -243 -87 -271 42 -9 90 20 113 69 22 47 43 37 26 -12 -7 -22 -26 -41
-56 -58 -60 -36 -112 -29 -162 20 -32 33 -36 42 -36 90 0 63 17 92 84 143 93
72 278 95 415 52 l67 -20 41 35 c37 32 68 46 68 31z m2413 -232 c-88 -130
-145 -250 -151 -319 -4 -44 -1 -55 12 -60 33 -13 114 86 135 164 14 50 6 72
-25 72 -13 0 -24 5 -24 10 0 20 51 10 75 -15 32 -31 33 -89 4 -148 -41 -81
-90 -117 -158 -117 -41 0 -65 16 -76 50 -6 18 -9 16 -37 -16 -39 -44 -85 -45
-106 -1 l-13 27 -30 -30 c-36 -35 -81 -40 -106 -11 -16 19 -16 19 -44 -1 -20
-15 -36 -19 -61 -14 -39 7 -40 7 -94 0 -36 -5 -44 -3 -58 17 -57 81 53 269
158 269 39 0 56 -25 56 -81 0 -52 -15 -91 -56 -145 -24 -33 -23 -44 7 -44 29
0 61 43 119 160 l54 110 40 0 c37 0 38 -1 23 -18 -28 -31 -97 -188 -97 -221 0
-68 50 -15 126 132 54 105 56 107 89 107 l34 0 -24 -36 c-30 -44 -87 -190 -83
-212 5 -28 26 -24 51 10 13 18 55 92 92 163 153 293 153 294 208 295 27 0 27
-1 -40 -97z m705 60 c11 -19 -1 -70 -29 -125 -19 -38 -19 -38 1 -38 11 0 20
-4 20 -10 0 -5 -13 -10 -28 -10 -20 0 -32 -7 -39 -22 -6 -13 -29 -44 -52 -69
-48 -55 -74 -141 -49 -165 13 -13 18 -12 42 7 15 12 41 46 59 77 36 64 49 54
16 -13 -34 -68 -75 -105 -116 -105 -27 0 -37 6 -50 28 l-16 28 -28 -28 c-32
-33 -69 -36 -93 -9 -22 24 -15 62 25 144 l29 57 -26 10 c-28 11 -44 6 -44 -14
0 -8 -18 -51 -41 -96 -46 -91 -80 -120 -142 -120 -47 0 -87 36 -87 77 0 50 55
149 101 182 92 67 168 13 95 -67 -23 -26 -87 -62 -110 -62 -16 0 -26 -21 -26
-59 0 -51 38 -66 82 -31 36 28 105 166 127 252 17 65 21 73 42 73 35 0 39 -48
7 -82 l-23 -25 52 3 c29 2 55 0 59 -3 3 -4 -13 -47 -35 -97 -43 -97 -50 -131
-26 -131 23 0 62 67 95 165 16 49 30 90 30 92 0 2 -9 3 -20 3 -11 0 -20 5 -20
10 0 6 12 10 28 10 24 0 31 9 62 71 48 97 103 137 128 92z m-2762 -197 c14
-11 16 -18 8 -26 -8 -8 -14 -7 -24 5 -20 25 -48 18 -94 -25 -73 -67 -124 -200
-77 -200 24 0 55 40 106 133 32 59 40 67 66 67 35 0 36 -5 5 -61 -30 -55 -51
-128 -38 -141 14 -14 43 26 102 140 55 107 55 107 95 110 37 3 39 2 24 -15 -9
-10 -26 -36 -40 -58 l-23 -40 44 37 c47 41 127 84 137 74 3 -3 -15 -52 -41
-109 -25 -58 -46 -114 -46 -126 0 -51 53 -5 99 87 12 23 26 42 31 42 15 0 13
-7 -22 -72 -36 -68 -69 -98 -108 -98 -58 0 -68 58 -25 147 15 30 24 57 21 61
-11 11 -93 -78 -131 -143 -39 -68 -54 -75 -125 -65 -29 4 -37 11 -44 36 l-9
32 -32 -34 c-38 -40 -87 -47 -105 -15 -34 65 31 214 111 254 42 20 109 22 135
3z"/>
<path d="M2135 3406 c-44 -21 -88 -63 -80 -77 11 -16 119 -5 150 15 15 10 25
26 25 40 0 37 -41 46 -95 22z"/>
<path d="M2371 3303 c-10 -26 -10 -27 4 -9 8 11 15 23 15 28 0 15 -7 8 -19
-19z"/>
<path d="M2016 3288 c-44 -67 -56 -148 -22 -148 33 0 166 128 166 160 0 6 -29
10 -65 10 -56 0 -66 -3 -79 -22z"/>
<path d="M2553 3400 c-35 -21 -53 -48 -53 -79 0 -29 4 -27 50 19 31 31 48 40
73 40 l32 -1 -31 -13 c-36 -16 -89 -80 -79 -96 9 -14 53 -12 114 6 l53 15 -6
37 c-8 46 -55 92 -94 92 -15 0 -41 -9 -59 -20z"/>
<path d="M2677 3264 c-3 -3 -39 -9 -79 -12 l-73 -7 -3 -42 c-2 -33 1 -44 20
-57 32 -22 52 -20 88 10 26 22 70 90 70 109 0 7 -15 6 -23 -1z"/>
<path d="M2714 3084 c-9 -30 -14 -58 -11 -61 8 -7 33 46 40 85 11 54 -11 36
-29 -24z"/>
<path d="M3025 2720 c-3 -5 -2 -10 4 -10 5 0 13 5 16 10 3 6 2 10 -4 10 -5 0
-13 -4 -16 -10z"/>
<path d="M1108 2574 c-13 -21 -62 -101 -108 -177 -47 -76 -106 -165 -133 -198
l-47 -59 24 -9 c92 -35 217 -44 277 -18 78 32 139 130 139 222 0 78 -38 171
-103 249 l-24 30 -25 -40z"/>
<path d="M566 2184 c-19 -19 -20 -44 -3 -68 18 -24 92 -23 148 2 l44 19 -65
32 c-73 35 -101 38 -124 15z"/>
<path d="M3002 2335 c-31 -26 -75 -108 -86 -160 -7 -36 5 -58 30 -53 14 2 19
12 19 40 1 48 18 67 45 50 18 -11 21 -8 33 20 31 74 32 128 2 128 -7 0 -27
-11 -43 -25z"/>
<path d="M4265 2480 c-32 -63 -33 -70 -16 -70 13 0 24 13 36 43 47 115 34 134
-20 27z"/>
<path d="M4211 2364 c-17 -38 -7 -40 19 -5 16 23 18 31 7 31 -7 0 -19 -12 -26
-26z"/>
<path d="M3827 2331 c-37 -41 -62 -81 -51 -81 3 0 20 7 37 15 34 17 63 50 69
80 6 32 -18 26 -55 -14z"/>
</g>
</svg>
